<?xml version="1.0" encoding="UTF-8"?>
<svg width="320px" height="320px" viewBox="0 0 320 320" version="1.1" xmlns="http://www.w3.org/2000/svg" xmlns:xlink="http://www.w3.org/1999/xlink">
    <!-- Generator: Sketch 43.2 (39069) - http://www.bohemiancoding.com/sketch -->
    <title>Artboard 2@2x</title>
    <desc>Created with Sketch.</desc>
    <defs></defs>
    <g id="WebPage" stroke="none" stroke-width="1" fill="none" fill-rule="evenodd">
        <g id="Artboard-2">
            <g id="Group" transform="translate(61.000000, 29.000000)" stroke="#FFFFFF" stroke-width="4">
                <circle id="Oval" fill-opacity="0" fill="#D8D8D8" cx="99" cy="99" r="99"></circle>
                <path d="M184.68,49.86 L14.58,149.22" id="Line" stroke-linecap="square"></path>
                <path d="M78.3333333,114.48 L78.3333333,194.220813" id="Line" stroke-linecap="square"></path>
                <path d="M120,2.88 L120,85.5" id="Line" stroke-linecap="square"></path>
                <path d="M118.98,39.06 L63,8" id="Line" stroke-linecap="square"></path>
                <path d="M131,191 L82,162" id="Line" stroke-linecap="square"></path>
            </g>
            <path d="M60.52,267.92 C59.9599972,267.146663 59.2000048,266.513336 58.24,266.02 C57.2799952,265.526664 56.200006,265.28 55,265.28 C54.3599968,265.28 53.7133366,265.366666 53.06,265.54 C52.4066634,265.713334 51.813336,265.993331 51.28,266.38 C50.746664,266.766669 50.313335,267.246664 49.98,267.82 C49.646665,268.393336 49.48,269.079996 49.48,269.88 C49.48,270.653337 49.6333318,271.299997 49.94,271.82 C50.2466682,272.340003 50.6599974,272.779998 51.18,273.14 C51.7000026,273.500002 52.3133298,273.806665 53.02,274.06 C53.7266702,274.313335 54.479996,274.573332 55.28,274.84 C56.2400048,275.133335 57.2133284,275.466665 58.2,275.84 C59.1866716,276.213335 60.079996,276.706664 60.88,277.32 C61.680004,277.933336 62.3333308,278.699995 62.84,279.62 C63.3466692,280.540005 63.6,281.70666 63.6,283.12 C63.6,284.586674 63.3266694,285.859995 62.78,286.94 C62.2333306,288.020005 61.5066712,288.91333 60.6,289.62 C59.6933288,290.32667 58.6466726,290.853332 57.46,291.2 C56.2733274,291.546668 55.0533396,291.72 53.8,291.72 C52.0133244,291.72 50.286675,291.373337 48.62,290.68 C46.953325,289.986663 45.5733388,288.960007 44.48,287.6 L47.56,285 C48.22667,285.986672 49.1199944,286.786664 50.24,287.4 C51.3600056,288.013336 52.5733268,288.32 53.88,288.32 C54.54667,288.32 55.21333,288.226668 55.88,288.04 C56.54667,287.853332 57.1533306,287.560002 57.7,287.16 C58.2466694,286.759998 58.6933316,286.260003 59.04,285.66 C59.3866684,285.059997 59.56,284.333338 59.56,283.48 C59.56,282.626662 59.3800018,281.913336 59.02,281.34 C58.6599982,280.766664 58.1733364,280.280002 57.56,279.88 C56.9466636,279.479998 56.2333374,279.140001 55.42,278.86 C54.6066626,278.579999 53.7466712,278.293335 52.84,278 C51.9333288,277.733332 51.0400044,277.406669 50.16,277.02 C49.2799956,276.633331 48.4933368,276.140003 47.8,275.54 C47.1066632,274.939997 46.5466688,274.200004 46.12,273.32 C45.6933312,272.439996 45.48,271.346673 45.48,270.04 C45.48,268.62666 45.7666638,267.413338 46.34,266.4 C46.9133362,265.386662 47.6599954,264.54667 48.58,263.88 C49.5000046,263.21333 50.5399942,262.726668 51.7,262.42 C52.8600058,262.113332 54.0266608,261.96 55.2,261.96 C56.8533416,261.96 58.3999928,262.25333 59.84,262.84 C61.2800072,263.42667 62.4399956,264.213328 63.32,265.2 L60.52,267.92 Z M79.12,291 L75.16,291 L75.16,266.16 L66.08,266.16 L66.08,262.68 L88.2,262.68 L88.2,266.16 L79.12,266.16 L79.12,291 Z M95.92,291 L91.96,291 L91.96,262.68 L101.04,262.68 C102.400007,262.68 103.693327,262.819999 104.92,263.1 C106.146673,263.380001 107.219995,263.826664 108.14,264.44 C109.060005,265.053336 109.786664,265.859995 110.32,266.86 C110.853336,267.860005 111.12,269.079993 111.12,270.52 C111.12,272.60001 110.480006,274.279994 109.2,275.56 C107.919994,276.840006 106.266677,277.653332 104.24,278 L112.16,291 L107.36,291 L100.16,278.4 L95.92,278.4 L95.92,291 Z M95.92,275.08 L100.48,275.08 C101.413338,275.08 102.279996,275.000001 103.08,274.84 C103.880004,274.679999 104.579997,274.420002 105.18,274.06 C105.780003,273.699998 106.253332,273.233336 106.6,272.66 C106.946668,272.086664 107.12,271.373338 107.12,270.52 C107.12,269.666662 106.946668,268.953336 106.6,268.38 C106.253332,267.806664 105.793336,267.346668 105.22,267 C104.646664,266.653332 103.973337,266.406667 103.2,266.26 C102.426663,266.113333 101.613338,266.04 100.76,266.04 L95.92,266.04 L95.92,275.08 Z M117.68,291 L113.28,291 L125.56,262.68 L129.16,262.68 L141.32,291 L136.84,291 L133.96,284.04 L120.52,284.04 L117.68,291 Z M121.92,280.56 L132.52,280.56 L127.24,267.28 L121.92,280.56 Z M169.24,286.6 C168.119994,288.120008 166.666676,289.353329 164.88,290.3 C163.093324,291.246671 160.946679,291.72 158.44,291.72 C156.279989,291.72 154.286676,291.353337 152.46,290.62 C150.633324,289.886663 149.060007,288.860007 147.74,287.54 C146.419993,286.219993 145.38667,284.646676 144.64,282.82 C143.89333,280.993324 143.52,278.986678 143.52,276.8 C143.52,274.586656 143.899996,272.566676 144.66,270.74 C145.420004,268.913324 146.473327,267.35334 147.82,266.06 C149.166673,264.76666 150.759991,263.760004 152.6,263.04 C154.440009,262.319996 156.439989,261.96 158.6,261.96 C159.560005,261.96 160.533328,262.053332 161.52,262.24 C162.506672,262.426668 163.453329,262.706665 164.36,263.08 C165.266671,263.453335 166.09333,263.913331 166.84,264.46 C167.58667,265.006669 168.226664,265.639996 168.76,266.36 L165.64,268.76 C164.946663,267.799995 163.966673,267.00667 162.7,266.38 C161.433327,265.75333 160.066674,265.44 158.6,265.44 C156.946658,265.44 155.460007,265.739997 154.14,266.34 C152.819993,266.940003 151.693338,267.759995 150.76,268.8 C149.826662,269.840005 149.106669,271.04666 148.6,272.42 C148.093331,273.79334 147.84,275.253326 147.84,276.8 C147.84,278.400008 148.086664,279.893326 148.58,281.28 C149.073336,282.666674 149.779995,283.873328 150.7,284.9 C151.620005,285.926672 152.739993,286.73333 154.06,287.32 C155.380007,287.90667 156.853325,288.2 158.48,288.2 C160.080008,288.2 161.533327,287.880003 162.84,287.24 C164.146673,286.599997 165.226662,285.666673 166.08,284.44 L169.24,286.6 Z M183.2,291 L179.24,291 L179.24,266.16 L170.16,266.16 L170.16,262.68 L192.28,262.68 L192.28,266.16 L183.2,266.16 L183.2,291 Z M196.68,296.6 L194.4,296.6 L197.08,287.2 L199.92,287.2 L196.68,296.6 Z M219.64,291 L216.76,291 L216.76,262.68 L219.64,262.68 L219.64,291 Z M229.44,272.28 C229.493334,272.786669 229.533333,273.346664 229.56,273.96 C229.586667,274.573336 229.6,275.079998 229.6,275.48 L229.68,275.48 C230.213336,274.386661 231.079994,273.500003 232.28,272.82 C233.480006,272.139997 234.74666,271.8 236.08,271.8 C238.453345,271.8 240.233327,272.50666 241.42,273.92 C242.606673,275.33334 243.2,277.199988 243.2,279.52 L243.2,291 L240.48,291 L240.48,280.64 C240.48,279.653328 240.400001,278.760004 240.24,277.96 C240.079999,277.159996 239.806669,276.473336 239.42,275.9 C239.033331,275.326664 238.513337,274.880002 237.86,274.56 C237.206663,274.239998 236.386672,274.08 235.4,274.08 C234.679996,274.08 233.980003,274.226665 233.3,274.52 C232.619997,274.813335 232.013336,275.259997 231.48,275.86 C230.946664,276.460003 230.520002,277.219995 230.2,278.14 C229.879998,279.060005 229.72,280.14666 229.72,281.4 L229.72,291 L227,291 L227,276.4 C227,275.893331 226.986667,275.240004 226.96,274.44 C226.933333,273.639996 226.893334,272.920003 226.84,272.28 L229.44,272.28 Z M263.72,276.56 C263.266664,275.839996 262.606671,275.246669 261.74,274.78 C260.873329,274.313331 259.933338,274.08 258.92,274.08 C257.826661,274.08 256.840004,274.273331 255.96,274.66 C255.079996,275.046669 254.32667,275.579997 253.7,276.26 C253.07333,276.940003 252.593335,277.739995 252.26,278.66 C251.926665,279.580005 251.76,280.573328 251.76,281.64 C251.76,282.706672 251.926665,283.693329 252.26,284.6 C252.593335,285.506671 253.066664,286.299997 253.68,286.98 C254.293336,287.660003 255.039996,288.193331 255.92,288.58 C256.800004,288.966669 257.786661,289.16 258.88,289.16 C260.080006,289.16 261.093329,288.933336 261.92,288.48 C262.746671,288.026664 263.426664,287.440004 263.96,286.72 L266,288.24 C265.199996,289.226672 264.220006,290.01333 263.06,290.6 C261.899994,291.18667 260.506675,291.48 258.88,291.48 C257.359992,291.48 255.986673,291.233336 254.76,290.74 C253.533327,290.246664 252.486671,289.560004 251.62,288.68 C250.753329,287.799996 250.080002,286.760006 249.6,285.56 C249.119998,284.359994 248.88,283.05334 248.88,281.64 C248.88,280.22666 249.119998,278.920006 249.6,277.72 C250.080002,276.519994 250.753329,275.480004 251.62,274.6 C252.486671,273.719996 253.533327,273.033336 254.76,272.54 C255.986673,272.046664 257.359992,271.8 258.88,271.8 C260.13334,271.8 261.40666,272.073331 262.7,272.62 C263.99334,273.166669 265.039996,273.973328 265.84,275.04 L263.72,276.56 Z M274,289.08 C274,289.640003 273.800002,290.139998 273.4,290.58 C272.999998,291.020002 272.480003,291.24 271.84,291.24 C271.199997,291.24 270.680002,291.020002 270.28,290.58 C269.879998,290.139998 269.68,289.640003 269.68,289.08 C269.68,288.519997 269.879998,288.020002 270.28,287.58 C270.680002,287.139998 271.199997,286.92 271.84,286.92 C272.480003,286.92 272.999998,287.139998 273.4,287.58 C273.800002,288.020002 274,288.519997 274,289.08 Z" id="STRACT,-Inc." fill="#FFFFFF"></path>
        </g>
    </g>
</svg>